<mxfile host="app.diagrams.net" modified="2022-07-12T21:46:02.032Z" agent="5.0 (Windows)" etag="AV4qztiQRvKpb-p2Dj4a" version="20.1.1" type="github" pages="3">
  <diagram name="Activity Diagram" id="e7e014a7-5840-1c2e-5031-d8a46d1fe8dd">
    <mxGraphModel dx="1483" dy="806" grid="1" gridSize="10" guides="1" tooltips="1" connect="1" arrows="1" fold="1" page="1" pageScale="1" pageWidth="1169" pageHeight="826" background="none" math="0" shadow="0">
      <root>
        <mxCell id="0" />
        <mxCell id="1" parent="0" />
        <mxCell id="2" value="Farmer" style="swimlane;whiteSpace=wrap" parent="1" vertex="1">
          <mxGeometry x="164.5" y="128" width="280" height="570" as="geometry" />
        </mxCell>
        <mxCell id="5" value="" style="ellipse;shape=startState;fillColor=#000000;strokeColor=#ff0000;" parent="2" vertex="1">
          <mxGeometry x="100" y="40" width="30" height="30" as="geometry" />
        </mxCell>
        <mxCell id="6" value="" style="edgeStyle=elbowEdgeStyle;elbow=horizontal;verticalAlign=bottom;endArrow=open;endSize=8;strokeColor=#FF0000;endFill=1;rounded=0" parent="2" source="5" target="7" edge="1">
          <mxGeometry x="100" y="40" as="geometry">
            <mxPoint x="115" y="110" as="targetPoint" />
          </mxGeometry>
        </mxCell>
        <mxCell id="7" value="Harvest Coffee Beans" style="whiteSpace=wrap;" parent="2" vertex="1">
          <mxGeometry x="60" y="110" width="110" height="50" as="geometry" />
        </mxCell>
        <mxCell id="8" value="Process Cofee Beans" style="whiteSpace=wrap;" parent="2" vertex="1">
          <mxGeometry x="60" y="220" width="110" height="50" as="geometry" />
        </mxCell>
        <mxCell id="9" value="" style="endArrow=open;strokeColor=#FF0000;endFill=1;rounded=0" parent="2" source="7" target="8" edge="1">
          <mxGeometry relative="1" as="geometry" />
        </mxCell>
        <mxCell id="10" value="Pack Coffee Beans" style="whiteSpace=wrap;" parent="2" vertex="1">
          <mxGeometry x="60" y="325" width="110" height="50" as="geometry" />
        </mxCell>
        <mxCell id="11" value="" style="endArrow=open;strokeColor=#FF0000;endFill=1;rounded=0" parent="2" source="8" target="10" edge="1">
          <mxGeometry relative="1" as="geometry" />
        </mxCell>
        <mxCell id="f47Q_pFwa8DA4vRjLItJ-41" value="Put Coffee Beans for Sale" style="whiteSpace=wrap;" vertex="1" parent="2">
          <mxGeometry x="60" y="412" width="110" height="50" as="geometry" />
        </mxCell>
        <mxCell id="3" value="Distributor" style="swimlane;whiteSpace=wrap" parent="1" vertex="1">
          <mxGeometry x="444.5" y="128" width="280" height="570" as="geometry" />
        </mxCell>
        <mxCell id="15" value="Buy Coffee Beans" style="" parent="3" vertex="1">
          <mxGeometry x="65.5" y="110" width="110" height="50" as="geometry" />
        </mxCell>
        <mxCell id="16" value="Ship Coffee Beans" style="" parent="3" vertex="1">
          <mxGeometry x="65.5" y="220" width="110" height="50" as="geometry" />
        </mxCell>
        <mxCell id="17" value="" style="endArrow=open;strokeColor=#FF0000;endFill=1;rounded=0;entryX=0.467;entryY=-0.005;entryDx=0;entryDy=0;entryPerimeter=0;" parent="3" target="16" edge="1">
          <mxGeometry relative="1" as="geometry">
            <mxPoint x="116.5" y="162" as="sourcePoint" />
          </mxGeometry>
        </mxCell>
        <mxCell id="4" value="Retailer" style="swimlane;whiteSpace=wrap" parent="1" vertex="1">
          <mxGeometry x="724.5" y="128" width="280" height="570" as="geometry" />
        </mxCell>
        <mxCell id="f47Q_pFwa8DA4vRjLItJ-48" value="Receive Coffee Beans" style="whiteSpace=wrap;" vertex="1" parent="4">
          <mxGeometry x="75.5" y="110" width="110" height="50" as="geometry" />
        </mxCell>
        <mxCell id="20" value="" style="endArrow=open;strokeColor=#FF0000;endFill=1;rounded=0;exitX=1;exitY=0.5;exitDx=0;exitDy=0;entryX=0.018;entryY=0.431;entryDx=0;entryDy=0;edgeStyle=orthogonalEdgeStyle;entryPerimeter=0;" parent="1" source="f47Q_pFwa8DA4vRjLItJ-41" target="15" edge="1">
          <mxGeometry relative="1" as="geometry">
            <Array as="points">
              <mxPoint x="410" y="565" />
              <mxPoint x="410" y="260" />
            </Array>
          </mxGeometry>
        </mxCell>
        <mxCell id="f47Q_pFwa8DA4vRjLItJ-46" value="Vertical Container" style="swimlane;" vertex="1" parent="1">
          <mxGeometry x="1005" y="128" width="280" height="570" as="geometry" />
        </mxCell>
        <mxCell id="33" value="Purchase Coffee Beans" style="whiteSpace=wrap;" parent="f47Q_pFwa8DA4vRjLItJ-46" vertex="1">
          <mxGeometry x="85" y="111" width="110" height="50" as="geometry" />
        </mxCell>
        <mxCell id="38" value="" style="ellipse;shape=endState;fillColor=#000000;strokeColor=#ff0000" parent="f47Q_pFwa8DA4vRjLItJ-46" vertex="1">
          <mxGeometry x="125" y="205" width="30" height="30" as="geometry" />
        </mxCell>
        <mxCell id="39" value="" style="endArrow=open;strokeColor=#FF0000;endFill=1;rounded=0" parent="f47Q_pFwa8DA4vRjLItJ-46" target="38" edge="1">
          <mxGeometry relative="1" as="geometry">
            <mxPoint x="140" y="162" as="sourcePoint" />
          </mxGeometry>
        </mxCell>
        <mxCell id="19" value="" style="endArrow=open;strokeColor=#FF0000;endFill=1;rounded=0;exitX=1.013;exitY=0.449;exitDx=0;exitDy=0;exitPerimeter=0;entryX=-0.001;entryY=0.495;entryDx=0;entryDy=0;entryPerimeter=0;edgeStyle=orthogonalEdgeStyle;" parent="1" source="16" target="f47Q_pFwa8DA4vRjLItJ-48" edge="1">
          <mxGeometry relative="1" as="geometry">
            <mxPoint x="570" y="480" as="targetPoint" />
          </mxGeometry>
        </mxCell>
        <mxCell id="f47Q_pFwa8DA4vRjLItJ-50" value="" style="endArrow=open;strokeColor=#FF0000;endFill=1;rounded=0;exitX=1.02;exitY=0.465;exitDx=0;exitDy=0;exitPerimeter=0;entryX=-0.008;entryY=0.434;entryDx=0;entryDy=0;entryPerimeter=0;edgeStyle=orthogonalEdgeStyle;" edge="1" parent="1" source="f47Q_pFwa8DA4vRjLItJ-48" target="33">
          <mxGeometry relative="1" as="geometry">
            <mxPoint x="631.4299999999998" y="380.4499999999998" as="sourcePoint" />
            <mxPoint x="809.8899999999999" y="272.75" as="targetPoint" />
          </mxGeometry>
        </mxCell>
      </root>
    </mxGraphModel>
  </diagram>
  <diagram id="VJ4ubCF3NESTtYHULCIa" name="Sequence Diagram">
    <mxGraphModel dx="1221" dy="664" grid="1" gridSize="10" guides="1" tooltips="1" connect="1" arrows="1" fold="1" page="1" pageScale="1" pageWidth="827" pageHeight="1169" math="0" shadow="0">
      <root>
        <mxCell id="0" />
        <mxCell id="1" parent="0" />
        <mxCell id="oyXQGhHs9B5VYAmBMB1y-2" value="purchaseCoffee()" style="html=1;verticalAlign=bottom;startArrow=oval;startFill=1;endArrow=block;startSize=8;rounded=0;entryX=1.129;entryY=0.702;entryDx=0;entryDy=0;entryPerimeter=0;" edge="1" parent="1">
          <mxGeometry width="60" relative="1" as="geometry">
            <mxPoint x="755.71" y="430" as="sourcePoint" />
            <mxPoint x="600" y="430.4" as="targetPoint" />
          </mxGeometry>
        </mxCell>
        <mxCell id="nkH7ZKUvaOJXrr_QaU1O-9" value="processCoffee()" style="html=1;verticalAlign=bottom;startArrow=oval;startFill=1;endArrow=block;startSize=8;rounded=0;" edge="1" parent="1" target="nkH7ZKUvaOJXrr_QaU1O-1">
          <mxGeometry width="60" relative="1" as="geometry">
            <mxPoint x="250" y="240" as="sourcePoint" />
            <mxPoint x="90" y="289.5" as="targetPoint" />
            <Array as="points">
              <mxPoint x="140" y="240" />
            </Array>
          </mxGeometry>
        </mxCell>
        <mxCell id="nkH7ZKUvaOJXrr_QaU1O-11" value="sellCoffee()" style="html=1;verticalAlign=bottom;startArrow=oval;startFill=1;endArrow=block;startSize=8;rounded=0;" edge="1" parent="1">
          <mxGeometry width="60" relative="1" as="geometry">
            <mxPoint x="250" y="300.00000000000006" as="sourcePoint" />
            <mxPoint x="90" y="300.00000000000006" as="targetPoint" />
          </mxGeometry>
        </mxCell>
        <mxCell id="oyXQGhHs9B5VYAmBMB1y-4" value="&lt;span class=&quot;pl-k&quot;&gt;&lt;span class=&quot;pl-en&quot;&gt;fetchCoffeeBufferOne&lt;/span&gt;&lt;/span&gt;()" style="html=1;verticalAlign=bottom;startArrow=oval;startFill=1;endArrow=block;startSize=8;rounded=0;" edge="1" parent="1">
          <mxGeometry width="60" relative="1" as="geometry">
            <mxPoint x="754.26" y="510" as="sourcePoint" />
            <mxPoint x="89.9973684210525" y="510" as="targetPoint" />
          </mxGeometry>
        </mxCell>
        <mxCell id="nkH7ZKUvaOJXrr_QaU1O-1" value="Coffee" style="shape=umlLifeline;perimeter=lifelinePerimeter;whiteSpace=wrap;html=1;container=1;collapsible=0;recursiveResize=0;outlineConnect=0;" vertex="1" parent="1">
          <mxGeometry x="40" y="120" width="100" height="420" as="geometry" />
        </mxCell>
        <mxCell id="nkH7ZKUvaOJXrr_QaU1O-10" value="packCoffee()" style="html=1;verticalAlign=bottom;startArrow=oval;startFill=1;endArrow=block;startSize=8;rounded=0;" edge="1" parent="nkH7ZKUvaOJXrr_QaU1O-1">
          <mxGeometry width="60" relative="1" as="geometry">
            <mxPoint x="210" y="149.70999999999998" as="sourcePoint" />
            <mxPoint x="50" y="149.70999999999998" as="targetPoint" />
          </mxGeometry>
        </mxCell>
        <mxCell id="nkH7ZKUvaOJXrr_QaU1O-3" value="Farmer" style="shape=umlLifeline;perimeter=lifelinePerimeter;whiteSpace=wrap;html=1;container=1;collapsible=0;recursiveResize=0;outlineConnect=0;" vertex="1" parent="1">
          <mxGeometry x="208" y="120" width="100" height="420" as="geometry" />
        </mxCell>
        <mxCell id="nkH7ZKUvaOJXrr_QaU1O-7" value="" style="html=1;points=[];perimeter=orthogonalPerimeter;" vertex="1" parent="nkH7ZKUvaOJXrr_QaU1O-3">
          <mxGeometry x="45" y="70" width="10" height="200" as="geometry" />
        </mxCell>
        <mxCell id="nkH7ZKUvaOJXrr_QaU1O-8" value="harvestCoffee()" style="html=1;verticalAlign=bottom;startArrow=oval;startFill=1;endArrow=block;startSize=8;rounded=0;" edge="1" parent="nkH7ZKUvaOJXrr_QaU1O-3">
          <mxGeometry width="60" relative="1" as="geometry">
            <mxPoint x="42" y="90" as="sourcePoint" />
            <mxPoint x="-118" y="90" as="targetPoint" />
          </mxGeometry>
        </mxCell>
        <mxCell id="nkH7ZKUvaOJXrr_QaU1O-4" value="Distributor" style="shape=umlLifeline;perimeter=lifelinePerimeter;whiteSpace=wrap;html=1;container=1;collapsible=0;recursiveResize=0;outlineConnect=0;" vertex="1" parent="1">
          <mxGeometry x="375" y="120" width="100" height="420" as="geometry" />
        </mxCell>
        <mxCell id="nkH7ZKUvaOJXrr_QaU1O-13" value="buyCoffee()" style="html=1;verticalAlign=bottom;startArrow=oval;startFill=1;endArrow=block;startSize=8;rounded=0;entryX=1.129;entryY=0.702;entryDx=0;entryDy=0;entryPerimeter=0;" edge="1" parent="nkH7ZKUvaOJXrr_QaU1O-4" target="nkH7ZKUvaOJXrr_QaU1O-7">
          <mxGeometry width="60" relative="1" as="geometry">
            <mxPoint x="45" y="210" as="sourcePoint" />
            <mxPoint x="-105" y="209.9999999999999" as="targetPoint" />
          </mxGeometry>
        </mxCell>
        <mxCell id="nkH7ZKUvaOJXrr_QaU1O-12" value="" style="html=1;points=[];perimeter=orthogonalPerimeter;" vertex="1" parent="nkH7ZKUvaOJXrr_QaU1O-4">
          <mxGeometry x="45" y="180" width="10" height="100" as="geometry" />
        </mxCell>
        <mxCell id="nkH7ZKUvaOJXrr_QaU1O-17" value="receiveCoffee()" style="html=1;verticalAlign=bottom;startArrow=oval;startFill=1;endArrow=block;startSize=8;rounded=0;entryX=1.129;entryY=0.702;entryDx=0;entryDy=0;entryPerimeter=0;" edge="1" parent="nkH7ZKUvaOJXrr_QaU1O-4">
          <mxGeometry width="60" relative="1" as="geometry">
            <mxPoint x="210.71" y="270" as="sourcePoint" />
            <mxPoint x="54.99999999999997" y="270.4" as="targetPoint" />
          </mxGeometry>
        </mxCell>
        <mxCell id="nkH7ZKUvaOJXrr_QaU1O-5" value="Retailer" style="shape=umlLifeline;perimeter=lifelinePerimeter;whiteSpace=wrap;html=1;container=1;collapsible=0;recursiveResize=0;outlineConnect=0;" vertex="1" parent="1">
          <mxGeometry x="543" y="120" width="100" height="420" as="geometry" />
        </mxCell>
        <mxCell id="nkH7ZKUvaOJXrr_QaU1O-14" value="" style="html=1;points=[];perimeter=orthogonalPerimeter;" vertex="1" parent="nkH7ZKUvaOJXrr_QaU1O-5">
          <mxGeometry x="45" y="220" width="10" height="100" as="geometry" />
        </mxCell>
        <mxCell id="oyXQGhHs9B5VYAmBMB1y-3" value="&lt;span class=&quot;pl-k&quot;&gt;&lt;span class=&quot;pl-en&quot;&gt;fetchCoffeeBufferOne&lt;/span&gt;&lt;/span&gt;()" style="html=1;verticalAlign=bottom;startArrow=oval;startFill=1;endArrow=block;startSize=8;rounded=0;" edge="1" parent="nkH7ZKUvaOJXrr_QaU1O-5" target="nkH7ZKUvaOJXrr_QaU1O-1">
          <mxGeometry width="60" relative="1" as="geometry">
            <mxPoint x="210.71000000000004" y="360" as="sourcePoint" />
            <mxPoint x="55" y="360.4000000000001" as="targetPoint" />
          </mxGeometry>
        </mxCell>
        <mxCell id="nkH7ZKUvaOJXrr_QaU1O-6" value="Consumer" style="shape=umlLifeline;perimeter=lifelinePerimeter;whiteSpace=wrap;html=1;container=1;collapsible=0;recursiveResize=0;outlineConnect=0;" vertex="1" parent="1">
          <mxGeometry x="710" y="120" width="100" height="420" as="geometry" />
        </mxCell>
        <mxCell id="oyXQGhHs9B5VYAmBMB1y-1" value="" style="html=1;points=[];perimeter=orthogonalPerimeter;" vertex="1" parent="nkH7ZKUvaOJXrr_QaU1O-6">
          <mxGeometry x="45" y="280" width="10" height="130" as="geometry" />
        </mxCell>
        <mxCell id="nkH7ZKUvaOJXrr_QaU1O-15" value="shipCoffee()" style="html=1;verticalAlign=bottom;startArrow=oval;startFill=1;endArrow=block;startSize=8;rounded=0;entryX=-0.23;entryY=0.196;entryDx=0;entryDy=0;entryPerimeter=0;" edge="1" parent="1" target="nkH7ZKUvaOJXrr_QaU1O-14">
          <mxGeometry width="60" relative="1" as="geometry">
            <mxPoint x="430" y="360" as="sourcePoint" />
            <mxPoint x="374.99999999999994" y="460.39999999999986" as="targetPoint" />
          </mxGeometry>
        </mxCell>
      </root>
    </mxGraphModel>
  </diagram>
  <diagram id="Scg2CqYwTJmaTbYWmZnT" name="State Diagram">
    <mxGraphModel dx="2076" dy="1128" grid="1" gridSize="10" guides="1" tooltips="1" connect="1" arrows="1" fold="1" page="1" pageScale="1" pageWidth="1169" pageHeight="827" math="0" shadow="0">
      <root>
        <mxCell id="0" />
        <mxCell id="1" parent="0" />
        <mxCell id="swgkuPsOOCJP-xETYmcG-62" value="Coffee State" style="shape=umlFrame;whiteSpace=wrap;html=1;" vertex="1" parent="1">
          <mxGeometry x="20" y="340" width="1100" height="200" as="geometry" />
        </mxCell>
        <mxCell id="Fh5wfcM8RjLtOjeNkvIe-9" style="edgeStyle=orthogonalEdgeStyle;rounded=0;orthogonalLoop=1;jettySize=auto;html=1;entryX=0.514;entryY=-0.033;entryDx=0;entryDy=0;entryPerimeter=0;exitX=0.505;exitY=1.038;exitDx=0;exitDy=0;exitPerimeter=0;" edge="1" parent="1" source="Fh5wfcM8RjLtOjeNkvIe-4" target="Fh5wfcM8RjLtOjeNkvIe-7">
          <mxGeometry relative="1" as="geometry" />
        </mxCell>
        <mxCell id="Fh5wfcM8RjLtOjeNkvIe-15" style="edgeStyle=orthogonalEdgeStyle;rounded=0;orthogonalLoop=1;jettySize=auto;html=1;entryX=0.002;entryY=0.509;entryDx=0;entryDy=0;entryPerimeter=0;exitX=0.989;exitY=0.524;exitDx=0;exitDy=0;exitPerimeter=0;" edge="1" parent="1" source="Fh5wfcM8RjLtOjeNkvIe-4" target="Fh5wfcM8RjLtOjeNkvIe-11">
          <mxGeometry relative="1" as="geometry" />
        </mxCell>
        <mxCell id="Fh5wfcM8RjLtOjeNkvIe-4" value="Farmer" style="html=1;align=center;verticalAlign=middle;rounded=1;absoluteArcSize=1;arcSize=10;dashed=0;" vertex="1" parent="1">
          <mxGeometry x="100" y="130" width="90" height="40" as="geometry" />
        </mxCell>
        <mxCell id="Fh5wfcM8RjLtOjeNkvIe-6" value="" style="edgeStyle=orthogonalEdgeStyle;rounded=0;orthogonalLoop=1;jettySize=auto;html=1;" edge="1" parent="1" source="Fh5wfcM8RjLtOjeNkvIe-5">
          <mxGeometry relative="1" as="geometry">
            <mxPoint x="100" y="150" as="targetPoint" />
          </mxGeometry>
        </mxCell>
        <mxCell id="Fh5wfcM8RjLtOjeNkvIe-5" value="" style="ellipse;html=1;shape=endState;fillColor=#000000;strokeColor=#000000;" vertex="1" parent="1">
          <mxGeometry x="30" y="135" width="30" height="30" as="geometry" />
        </mxCell>
        <mxCell id="Fh5wfcM8RjLtOjeNkvIe-7" value="isFarmer" style="html=1;" vertex="1" parent="1">
          <mxGeometry x="110" y="200" width="70" height="30" as="geometry" />
        </mxCell>
        <mxCell id="Fh5wfcM8RjLtOjeNkvIe-8" value="harvestCoffee" style="rounded=1;whiteSpace=wrap;html=1;" vertex="1" parent="1">
          <mxGeometry x="105" y="270" width="80" height="30" as="geometry" />
        </mxCell>
        <mxCell id="Fh5wfcM8RjLtOjeNkvIe-10" style="edgeStyle=orthogonalEdgeStyle;rounded=0;orthogonalLoop=1;jettySize=auto;html=1;entryX=0.514;entryY=-0.033;entryDx=0;entryDy=0;entryPerimeter=0;" edge="1" target="Fh5wfcM8RjLtOjeNkvIe-12" parent="1">
          <mxGeometry relative="1" as="geometry">
            <mxPoint x="272" y="150" as="sourcePoint" />
          </mxGeometry>
        </mxCell>
        <mxCell id="Fh5wfcM8RjLtOjeNkvIe-20" style="edgeStyle=orthogonalEdgeStyle;rounded=0;orthogonalLoop=1;jettySize=auto;html=1;entryX=-0.005;entryY=0.479;entryDx=0;entryDy=0;entryPerimeter=0;" edge="1" parent="1" source="Fh5wfcM8RjLtOjeNkvIe-11" target="Fh5wfcM8RjLtOjeNkvIe-17">
          <mxGeometry relative="1" as="geometry" />
        </mxCell>
        <mxCell id="Fh5wfcM8RjLtOjeNkvIe-11" value="Farmer" style="html=1;align=center;verticalAlign=middle;rounded=1;absoluteArcSize=1;arcSize=10;dashed=0;" vertex="1" parent="1">
          <mxGeometry x="226" y="130" width="90" height="40" as="geometry" />
        </mxCell>
        <mxCell id="Fh5wfcM8RjLtOjeNkvIe-12" value="&lt;div&gt;isFarmer&lt;/div&gt;&lt;div&gt;harvested&lt;br&gt;&lt;/div&gt;" style="html=1;" vertex="1" parent="1">
          <mxGeometry x="236" y="200" width="70" height="30" as="geometry" />
        </mxCell>
        <mxCell id="Fh5wfcM8RjLtOjeNkvIe-13" value="processCoffee" style="rounded=1;whiteSpace=wrap;html=1;" vertex="1" parent="1">
          <mxGeometry x="231" y="270" width="80" height="30" as="geometry" />
        </mxCell>
        <mxCell id="Fh5wfcM8RjLtOjeNkvIe-16" style="edgeStyle=orthogonalEdgeStyle;rounded=0;orthogonalLoop=1;jettySize=auto;html=1;entryX=0.514;entryY=-0.033;entryDx=0;entryDy=0;entryPerimeter=0;" edge="1" target="Fh5wfcM8RjLtOjeNkvIe-18" parent="1">
          <mxGeometry relative="1" as="geometry">
            <mxPoint x="395.9999999999999" y="150" as="sourcePoint" />
          </mxGeometry>
        </mxCell>
        <mxCell id="swgkuPsOOCJP-xETYmcG-1" style="edgeStyle=orthogonalEdgeStyle;rounded=0;orthogonalLoop=1;jettySize=auto;html=1;" edge="1" parent="1" source="Fh5wfcM8RjLtOjeNkvIe-17">
          <mxGeometry relative="1" as="geometry">
            <mxPoint x="470" y="150" as="targetPoint" />
          </mxGeometry>
        </mxCell>
        <mxCell id="Fh5wfcM8RjLtOjeNkvIe-17" value="Farmer" style="html=1;align=center;verticalAlign=middle;rounded=1;absoluteArcSize=1;arcSize=10;dashed=0;" vertex="1" parent="1">
          <mxGeometry x="350" y="130" width="90" height="40" as="geometry" />
        </mxCell>
        <mxCell id="Fh5wfcM8RjLtOjeNkvIe-18" value="&lt;div&gt;isFarmer&lt;/div&gt;&lt;div&gt;processed&lt;br&gt;&lt;/div&gt;" style="html=1;" vertex="1" parent="1">
          <mxGeometry x="360" y="200" width="70" height="30" as="geometry" />
        </mxCell>
        <mxCell id="Fh5wfcM8RjLtOjeNkvIe-19" value="packCoffee" style="rounded=1;whiteSpace=wrap;html=1;" vertex="1" parent="1">
          <mxGeometry x="355" y="270" width="80" height="30" as="geometry" />
        </mxCell>
        <mxCell id="Fh5wfcM8RjLtOjeNkvIe-21" style="edgeStyle=orthogonalEdgeStyle;rounded=0;orthogonalLoop=1;jettySize=auto;html=1;entryX=0.514;entryY=-0.033;entryDx=0;entryDy=0;entryPerimeter=0;" edge="1" target="Fh5wfcM8RjLtOjeNkvIe-23" parent="1">
          <mxGeometry relative="1" as="geometry">
            <mxPoint x="516" y="150" as="sourcePoint" />
          </mxGeometry>
        </mxCell>
        <mxCell id="swgkuPsOOCJP-xETYmcG-6" style="edgeStyle=orthogonalEdgeStyle;rounded=0;orthogonalLoop=1;jettySize=auto;html=1;entryX=0.005;entryY=0.515;entryDx=0;entryDy=0;entryPerimeter=0;" edge="1" parent="1" source="Fh5wfcM8RjLtOjeNkvIe-22" target="swgkuPsOOCJP-xETYmcG-3">
          <mxGeometry relative="1" as="geometry" />
        </mxCell>
        <mxCell id="Fh5wfcM8RjLtOjeNkvIe-22" value="Farmer" style="html=1;align=center;verticalAlign=middle;rounded=1;absoluteArcSize=1;arcSize=10;dashed=0;" vertex="1" parent="1">
          <mxGeometry x="470" y="130" width="90" height="40" as="geometry" />
        </mxCell>
        <mxCell id="Fh5wfcM8RjLtOjeNkvIe-23" value="&lt;div&gt;isFarmer&lt;/div&gt;&lt;div&gt;packed&lt;br&gt;&lt;/div&gt;" style="html=1;" vertex="1" parent="1">
          <mxGeometry x="480" y="200" width="70" height="30" as="geometry" />
        </mxCell>
        <mxCell id="Fh5wfcM8RjLtOjeNkvIe-24" value="sellCoffee" style="rounded=1;whiteSpace=wrap;html=1;" vertex="1" parent="1">
          <mxGeometry x="475" y="270" width="80" height="30" as="geometry" />
        </mxCell>
        <mxCell id="swgkuPsOOCJP-xETYmcG-2" style="edgeStyle=orthogonalEdgeStyle;rounded=0;orthogonalLoop=1;jettySize=auto;html=1;entryX=0.514;entryY=-0.033;entryDx=0;entryDy=0;entryPerimeter=0;" edge="1" target="swgkuPsOOCJP-xETYmcG-4" parent="1">
          <mxGeometry relative="1" as="geometry">
            <mxPoint x="636" y="150" as="sourcePoint" />
          </mxGeometry>
        </mxCell>
        <mxCell id="swgkuPsOOCJP-xETYmcG-11" style="edgeStyle=orthogonalEdgeStyle;rounded=0;orthogonalLoop=1;jettySize=auto;html=1;entryX=0.009;entryY=0.521;entryDx=0;entryDy=0;entryPerimeter=0;" edge="1" parent="1" source="swgkuPsOOCJP-xETYmcG-3" target="swgkuPsOOCJP-xETYmcG-8">
          <mxGeometry relative="1" as="geometry" />
        </mxCell>
        <mxCell id="swgkuPsOOCJP-xETYmcG-3" value="Distributor" style="html=1;align=center;verticalAlign=middle;rounded=1;absoluteArcSize=1;arcSize=10;dashed=0;" vertex="1" parent="1">
          <mxGeometry x="590" y="130" width="90" height="40" as="geometry" />
        </mxCell>
        <mxCell id="swgkuPsOOCJP-xETYmcG-4" value="&lt;div&gt;isDistributor&lt;/div&gt;&lt;div&gt;forSale&lt;br&gt;&lt;/div&gt;" style="html=1;" vertex="1" parent="1">
          <mxGeometry x="600" y="200" width="70" height="30" as="geometry" />
        </mxCell>
        <mxCell id="swgkuPsOOCJP-xETYmcG-5" value="buyCoffee" style="rounded=1;whiteSpace=wrap;html=1;" vertex="1" parent="1">
          <mxGeometry x="595" y="270" width="80" height="30" as="geometry" />
        </mxCell>
        <mxCell id="swgkuPsOOCJP-xETYmcG-7" style="edgeStyle=orthogonalEdgeStyle;rounded=0;orthogonalLoop=1;jettySize=auto;html=1;entryX=0.514;entryY=-0.033;entryDx=0;entryDy=0;entryPerimeter=0;" edge="1" target="swgkuPsOOCJP-xETYmcG-9" parent="1">
          <mxGeometry relative="1" as="geometry">
            <mxPoint x="756" y="150" as="sourcePoint" />
          </mxGeometry>
        </mxCell>
        <mxCell id="swgkuPsOOCJP-xETYmcG-16" style="edgeStyle=orthogonalEdgeStyle;rounded=0;orthogonalLoop=1;jettySize=auto;html=1;entryX=-0.019;entryY=0.5;entryDx=0;entryDy=0;entryPerimeter=0;" edge="1" parent="1" source="swgkuPsOOCJP-xETYmcG-8" target="swgkuPsOOCJP-xETYmcG-13">
          <mxGeometry relative="1" as="geometry" />
        </mxCell>
        <mxCell id="swgkuPsOOCJP-xETYmcG-8" value="Distributor" style="html=1;align=center;verticalAlign=middle;rounded=1;absoluteArcSize=1;arcSize=10;dashed=0;" vertex="1" parent="1">
          <mxGeometry x="710" y="130" width="90" height="40" as="geometry" />
        </mxCell>
        <mxCell id="swgkuPsOOCJP-xETYmcG-9" value="&lt;div&gt;isDistributor&lt;/div&gt;&lt;div&gt;sold&lt;br&gt;&lt;/div&gt;" style="html=1;" vertex="1" parent="1">
          <mxGeometry x="720" y="200" width="70" height="30" as="geometry" />
        </mxCell>
        <mxCell id="swgkuPsOOCJP-xETYmcG-10" value="shipCoffee" style="rounded=1;whiteSpace=wrap;html=1;" vertex="1" parent="1">
          <mxGeometry x="715" y="270" width="80" height="30" as="geometry" />
        </mxCell>
        <mxCell id="swgkuPsOOCJP-xETYmcG-12" style="edgeStyle=orthogonalEdgeStyle;rounded=0;orthogonalLoop=1;jettySize=auto;html=1;entryX=0.514;entryY=-0.033;entryDx=0;entryDy=0;entryPerimeter=0;" edge="1" target="swgkuPsOOCJP-xETYmcG-14" parent="1">
          <mxGeometry relative="1" as="geometry">
            <mxPoint x="876" y="150" as="sourcePoint" />
          </mxGeometry>
        </mxCell>
        <mxCell id="swgkuPsOOCJP-xETYmcG-21" style="edgeStyle=orthogonalEdgeStyle;rounded=0;orthogonalLoop=1;jettySize=auto;html=1;entryX=-0.016;entryY=0.506;entryDx=0;entryDy=0;entryPerimeter=0;" edge="1" parent="1" source="swgkuPsOOCJP-xETYmcG-13" target="swgkuPsOOCJP-xETYmcG-18">
          <mxGeometry relative="1" as="geometry" />
        </mxCell>
        <mxCell id="swgkuPsOOCJP-xETYmcG-13" value="Retailer" style="html=1;align=center;verticalAlign=middle;rounded=1;absoluteArcSize=1;arcSize=10;dashed=0;" vertex="1" parent="1">
          <mxGeometry x="830" y="130" width="90" height="40" as="geometry" />
        </mxCell>
        <mxCell id="swgkuPsOOCJP-xETYmcG-14" value="&lt;div&gt;isRetailer&lt;/div&gt;&lt;div&gt;shipped&lt;/div&gt;" style="html=1;" vertex="1" parent="1">
          <mxGeometry x="840" y="200" width="70" height="30" as="geometry" />
        </mxCell>
        <mxCell id="swgkuPsOOCJP-xETYmcG-15" value="receiveCoffee" style="rounded=1;whiteSpace=wrap;html=1;" vertex="1" parent="1">
          <mxGeometry x="835" y="270" width="80" height="30" as="geometry" />
        </mxCell>
        <mxCell id="swgkuPsOOCJP-xETYmcG-17" style="edgeStyle=orthogonalEdgeStyle;rounded=0;orthogonalLoop=1;jettySize=auto;html=1;entryX=0.514;entryY=-0.033;entryDx=0;entryDy=0;entryPerimeter=0;" edge="1" target="swgkuPsOOCJP-xETYmcG-19" parent="1">
          <mxGeometry relative="1" as="geometry">
            <mxPoint x="996" y="150" as="sourcePoint" />
          </mxGeometry>
        </mxCell>
        <mxCell id="swgkuPsOOCJP-xETYmcG-23" style="edgeStyle=orthogonalEdgeStyle;rounded=0;orthogonalLoop=1;jettySize=auto;html=1;entryX=0;entryY=0.5;entryDx=0;entryDy=0;" edge="1" parent="1" source="swgkuPsOOCJP-xETYmcG-18" target="swgkuPsOOCJP-xETYmcG-22">
          <mxGeometry relative="1" as="geometry" />
        </mxCell>
        <mxCell id="swgkuPsOOCJP-xETYmcG-18" value="Consumer" style="html=1;align=center;verticalAlign=middle;rounded=1;absoluteArcSize=1;arcSize=10;dashed=0;" vertex="1" parent="1">
          <mxGeometry x="950" y="130" width="90" height="40" as="geometry" />
        </mxCell>
        <mxCell id="swgkuPsOOCJP-xETYmcG-19" value="&lt;div&gt;isConsumer&lt;/div&gt;&lt;div&gt;received&lt;/div&gt;" style="html=1;" vertex="1" parent="1">
          <mxGeometry x="960" y="200" width="70" height="30" as="geometry" />
        </mxCell>
        <mxCell id="swgkuPsOOCJP-xETYmcG-20" value="purchaseCoffee" style="rounded=1;whiteSpace=wrap;html=1;" vertex="1" parent="1">
          <mxGeometry x="955" y="270" width="80" height="30" as="geometry" />
        </mxCell>
        <mxCell id="swgkuPsOOCJP-xETYmcG-22" value="" style="ellipse;html=1;shape=endState;fillColor=#000000;strokeColor=#ff0000;" vertex="1" parent="1">
          <mxGeometry x="1070" y="135" width="30" height="30" as="geometry" />
        </mxCell>
        <mxCell id="swgkuPsOOCJP-xETYmcG-43" style="edgeStyle=orthogonalEdgeStyle;rounded=0;orthogonalLoop=1;jettySize=auto;html=1;entryX=0.002;entryY=0.509;entryDx=0;entryDy=0;entryPerimeter=0;exitX=0.989;exitY=0.524;exitDx=0;exitDy=0;exitPerimeter=0;" edge="1" source="swgkuPsOOCJP-xETYmcG-44" target="swgkuPsOOCJP-xETYmcG-48" parent="1">
          <mxGeometry relative="1" as="geometry" />
        </mxCell>
        <mxCell id="swgkuPsOOCJP-xETYmcG-44" value="Harvested" style="html=1;align=center;verticalAlign=middle;rounded=1;absoluteArcSize=1;arcSize=10;dashed=0;" vertex="1" parent="1">
          <mxGeometry x="100" y="400" width="90" height="40" as="geometry" />
        </mxCell>
        <mxCell id="swgkuPsOOCJP-xETYmcG-45" value="" style="edgeStyle=orthogonalEdgeStyle;rounded=0;orthogonalLoop=1;jettySize=auto;html=1;" edge="1" source="swgkuPsOOCJP-xETYmcG-46" parent="1">
          <mxGeometry relative="1" as="geometry">
            <mxPoint x="100" y="420" as="targetPoint" />
          </mxGeometry>
        </mxCell>
        <mxCell id="swgkuPsOOCJP-xETYmcG-46" value="" style="ellipse;html=1;shape=endState;fillColor=#000000;strokeColor=#000000;" vertex="1" parent="1">
          <mxGeometry x="30" y="405" width="30" height="30" as="geometry" />
        </mxCell>
        <mxCell id="swgkuPsOOCJP-xETYmcG-47" style="edgeStyle=orthogonalEdgeStyle;rounded=0;orthogonalLoop=1;jettySize=auto;html=1;entryX=-0.005;entryY=0.479;entryDx=0;entryDy=0;entryPerimeter=0;" edge="1" source="swgkuPsOOCJP-xETYmcG-48" target="swgkuPsOOCJP-xETYmcG-50" parent="1">
          <mxGeometry relative="1" as="geometry" />
        </mxCell>
        <mxCell id="swgkuPsOOCJP-xETYmcG-48" value="Processed" style="html=1;align=center;verticalAlign=middle;rounded=1;absoluteArcSize=1;arcSize=10;dashed=0;" vertex="1" parent="1">
          <mxGeometry x="226" y="400" width="90" height="40" as="geometry" />
        </mxCell>
        <mxCell id="swgkuPsOOCJP-xETYmcG-49" style="edgeStyle=orthogonalEdgeStyle;rounded=0;orthogonalLoop=1;jettySize=auto;html=1;" edge="1" source="swgkuPsOOCJP-xETYmcG-50" parent="1">
          <mxGeometry relative="1" as="geometry">
            <mxPoint x="470" y="420" as="targetPoint" />
          </mxGeometry>
        </mxCell>
        <mxCell id="swgkuPsOOCJP-xETYmcG-50" value="Packed" style="html=1;align=center;verticalAlign=middle;rounded=1;absoluteArcSize=1;arcSize=10;dashed=0;" vertex="1" parent="1">
          <mxGeometry x="350" y="400" width="90" height="40" as="geometry" />
        </mxCell>
        <mxCell id="swgkuPsOOCJP-xETYmcG-51" style="edgeStyle=orthogonalEdgeStyle;rounded=0;orthogonalLoop=1;jettySize=auto;html=1;entryX=0.005;entryY=0.515;entryDx=0;entryDy=0;entryPerimeter=0;" edge="1" source="swgkuPsOOCJP-xETYmcG-52" target="swgkuPsOOCJP-xETYmcG-54" parent="1">
          <mxGeometry relative="1" as="geometry" />
        </mxCell>
        <mxCell id="swgkuPsOOCJP-xETYmcG-52" value="For Sale" style="html=1;align=center;verticalAlign=middle;rounded=1;absoluteArcSize=1;arcSize=10;dashed=0;" vertex="1" parent="1">
          <mxGeometry x="470" y="400" width="90" height="40" as="geometry" />
        </mxCell>
        <mxCell id="swgkuPsOOCJP-xETYmcG-53" style="edgeStyle=orthogonalEdgeStyle;rounded=0;orthogonalLoop=1;jettySize=auto;html=1;entryX=0.009;entryY=0.521;entryDx=0;entryDy=0;entryPerimeter=0;" edge="1" source="swgkuPsOOCJP-xETYmcG-54" target="swgkuPsOOCJP-xETYmcG-56" parent="1">
          <mxGeometry relative="1" as="geometry" />
        </mxCell>
        <mxCell id="swgkuPsOOCJP-xETYmcG-54" value="Sold" style="html=1;align=center;verticalAlign=middle;rounded=1;absoluteArcSize=1;arcSize=10;dashed=0;" vertex="1" parent="1">
          <mxGeometry x="590" y="400" width="90" height="40" as="geometry" />
        </mxCell>
        <mxCell id="swgkuPsOOCJP-xETYmcG-55" style="edgeStyle=orthogonalEdgeStyle;rounded=0;orthogonalLoop=1;jettySize=auto;html=1;entryX=-0.019;entryY=0.5;entryDx=0;entryDy=0;entryPerimeter=0;" edge="1" source="swgkuPsOOCJP-xETYmcG-56" target="swgkuPsOOCJP-xETYmcG-58" parent="1">
          <mxGeometry relative="1" as="geometry" />
        </mxCell>
        <mxCell id="swgkuPsOOCJP-xETYmcG-56" value="Shipped" style="html=1;align=center;verticalAlign=middle;rounded=1;absoluteArcSize=1;arcSize=10;dashed=0;" vertex="1" parent="1">
          <mxGeometry x="710" y="400" width="90" height="40" as="geometry" />
        </mxCell>
        <mxCell id="swgkuPsOOCJP-xETYmcG-57" style="edgeStyle=orthogonalEdgeStyle;rounded=0;orthogonalLoop=1;jettySize=auto;html=1;entryX=-0.016;entryY=0.506;entryDx=0;entryDy=0;entryPerimeter=0;" edge="1" source="swgkuPsOOCJP-xETYmcG-58" target="swgkuPsOOCJP-xETYmcG-60" parent="1">
          <mxGeometry relative="1" as="geometry" />
        </mxCell>
        <mxCell id="swgkuPsOOCJP-xETYmcG-58" value="Received" style="html=1;align=center;verticalAlign=middle;rounded=1;absoluteArcSize=1;arcSize=10;dashed=0;" vertex="1" parent="1">
          <mxGeometry x="830" y="400" width="90" height="40" as="geometry" />
        </mxCell>
        <mxCell id="swgkuPsOOCJP-xETYmcG-59" style="edgeStyle=orthogonalEdgeStyle;rounded=0;orthogonalLoop=1;jettySize=auto;html=1;entryX=0;entryY=0.5;entryDx=0;entryDy=0;" edge="1" source="swgkuPsOOCJP-xETYmcG-60" target="swgkuPsOOCJP-xETYmcG-61" parent="1">
          <mxGeometry relative="1" as="geometry" />
        </mxCell>
        <mxCell id="swgkuPsOOCJP-xETYmcG-60" value="Purchased" style="html=1;align=center;verticalAlign=middle;rounded=1;absoluteArcSize=1;arcSize=10;dashed=0;" vertex="1" parent="1">
          <mxGeometry x="950" y="400" width="90" height="40" as="geometry" />
        </mxCell>
        <mxCell id="swgkuPsOOCJP-xETYmcG-61" value="" style="ellipse;html=1;shape=endState;fillColor=#000000;strokeColor=#ff0000;" vertex="1" parent="1">
          <mxGeometry x="1070" y="405" width="30" height="30" as="geometry" />
        </mxCell>
      </root>
    </mxGraphModel>
  </diagram>
</mxfile>
